<svg xmlns="http://www.w3.org/2000/svg" viewBox="0 0 1000 1000" width="2000" height="2000">
<circle cx="500.0" cy="235.0" r="28" fill="#F5E642"/>
<path d="M534.0,265.0 C534.0,295.0 506.0,320.0 506.0,370.0 L494.0,370.0 C494.0,320.0 466.0,295.0 466.0,265.0 Z" fill="#F5E642"/>
<path d="M534.0,280.0 C569.0,280.0 614.0,268.0 649.0,268.0 L649.0,262.0 C614.0,262.0 569.0,250.0 534.0,250.0 Z" fill="#F5E642"/>
<path d="M466.0,280.0 C431.0,280.0 386.0,268.0 351.0,268.0 L351.0,262.0 C386.0,262.0 431.0,250.0 466.0,250.0 Z" fill="#F5E642"/>
<circle cx="707.2" cy="334.8" r="28" fill="#E03333"/>
<path d="M704.9,380.1 C681.5,398.8 644.5,392.5 605.4,423.6 L597.9,414.3 C637.0,383.1 639.1,345.6 662.5,326.9 Z" fill="#E03333"/>
<path d="M693.2,389.4 C715.0,416.8 752.5,444.5 774.3,471.8 L779.0,468.1 C757.2,440.7 738.5,398.1 716.7,370.7 Z" fill="#E03333"/>
<path d="M650.8,336.2 C629.0,308.9 610.3,266.2 588.5,238.9 L593.2,235.1 C615.0,262.5 652.4,290.2 674.3,317.5 Z" fill="#E03333"/>
<circle cx="758.4" cy="559.0" r="28" fill="#7B4EAE"/>
<path d="M721.5,585.4 C692.3,578.8 674.2,545.9 625.4,534.8 L628.1,523.1 C676.8,534.2 707.4,512.5 736.7,519.1 Z" fill="#7B4EAE"/>
<path d="M706.9,582.1 C699.1,616.2 700.8,662.8 693.0,696.9 L698.9,698.2 C706.7,664.1 728.4,622.9 736.2,588.8 Z" fill="#7B4EAE"/>
<path d="M722.0,515.8 C729.8,481.7 751.6,440.5 759.3,406.4 L765.2,407.7 C757.4,441.8 759.1,488.4 751.3,522.5 Z" fill="#7B4EAE"/>
<circle cx="615.0" cy="738.8" r="28" fill="#9B6DC4"/>
<path d="M571.3,726.5 C558.3,699.5 572.7,664.8 551.0,619.7 L561.8,614.5 C583.5,659.6 619.6,669.9 632.6,697.0 Z" fill="#9B6DC4"/>
<path d="M564.8,713.0 C533.3,728.2 498.0,758.5 466.4,773.7 L469.0,779.1 C500.6,763.9 546.3,755.2 577.8,740.0 Z" fill="#9B6DC4"/>
<path d="M626.1,683.5 C657.6,668.3 703.4,659.6 734.9,644.4 L737.5,649.8 C706.0,665.0 670.6,695.3 639.1,710.5 Z" fill="#9B6DC4"/>
<circle cx="385.0" cy="738.8" r="28" fill="#2E6EAF"/>
<path d="M367.4,697.0 C380.4,669.9 416.5,659.6 438.2,614.5 L449.0,619.7 C427.3,664.8 441.7,699.5 428.7,726.5 Z" fill="#2E6EAF"/>
<path d="M373.9,683.5 C342.4,668.3 296.6,659.6 265.1,644.4 L262.5,649.8 C294.0,665.0 329.4,695.3 360.9,710.5 Z" fill="#2E6EAF"/>
<path d="M435.2,713.0 C466.7,728.2 502.0,758.5 533.6,773.7 L531.0,779.1 C499.4,763.9 453.7,755.2 422.2,740.0 Z" fill="#2E6EAF"/>
<circle cx="241.6" cy="559.0" r="28" fill="#00A3A3"/>
<path d="M263.3,519.1 C292.6,512.5 323.2,534.2 371.9,523.1 L374.6,534.8 C325.8,545.9 307.7,578.8 278.5,585.4 Z" fill="#00A3A3"/>
<path d="M278.0,515.8 C270.2,481.7 248.4,440.5 240.7,406.4 L234.8,407.7 C242.6,441.8 240.9,488.4 248.7,522.5 Z" fill="#00A3A3"/>
<path d="M293.1,582.1 C300.9,616.2 299.2,662.8 307.0,696.9 L301.1,698.2 C293.3,664.1 271.6,622.9 263.8,588.8 Z" fill="#00A3A3"/>
<circle cx="292.8" cy="334.8" r="28" fill="#8DC63F"/>
<path d="M337.5,326.9 C360.9,345.6 363.0,383.1 402.1,414.3 L394.6,423.6 C355.5,392.5 318.5,398.8 295.1,380.1 Z" fill="#8DC63F"/>
<path d="M349.2,336.2 C371.0,308.9 389.7,266.2 411.5,238.9 L406.8,235.1 C385.0,262.5 347.6,290.2 325.7,317.5 Z" fill="#8DC63F"/>
<path d="M306.8,389.4 C285.0,416.8 247.5,444.5 225.7,471.8 L221.0,468.1 C242.8,440.7 261.5,398.1 283.3,370.7 Z" fill="#8DC63F"/>
</svg>